/* XPM */
static char *drive_harddisk__[] = {
/* columns rows colors chars-per-pixel */
"22 22 101 2 ",
"   c #0E232E",
".  c #11252F",
"X  c #122631",
"o  c #152932",
"O  c #1A2A33",
"+  c #1A2E38",
"@  c #1E323D",
"#  c #223139",
"$  c #1F3540",
"%  c #223640",
"&  c #243C45",
"*  c #2C3D45",
"=  c #2C3F48",
"-  c #313E44",
";  c #2E414B",
":  c #344146",
">  c #324149",
",  c #38484F",
"<  c #344650",
"1  c #364A53",
"2  c #3B4D56",
"3  c #374C58",
"4  c #3A4F59",
"5  c #3E515C",
"6  c #424F57",
"7  c #465257",
"8  c #42545C",
"9  c #4B575C",
"0  c #4D585E",
"q  c #435660",
"w  c #455963",
"e  c #4C5C62",
"r  c #465E6A",
"t  c #535E64",
"y  c #556065",
"u  c #55666E",
"i  c #5A656A",
"p  c #5E696E",
"a  c #4F6774",
"s  c #4F6875",
"d  c #546770",
"f  c #546872",
"g  c #5A6B73",
"h  c #556D7A",
"j  c #5C6F79",
"k  c #5C717B",
"l  c #677276",
"z  c #62747C",
"x  c #707A7F",
"c  c #5E7580",
"v  c #607581",
"b  c #657984",
"n  c #6C7A82",
"m  c #6B7F89",
"M  c #747E82",
"N  c #6D818B",
"B  c #748186",
"V  c #72848D",
"C  c #7B858A",
"Z  c #7F888D",
"A  c #748791",
"S  c #778891",
"D  c #7A8B95",
"F  c #7D8F98",
"G  c #7F9199",
"H  c #80898F",
"J  c #848F96",
"K  c #84959D",
"L  c #8B969B",
"P  c #8C9CA3",
"I  c #939FA4",
"U  c #94A0A6",
"Y  c #98A1A6",
"T  c #94A2A9",
"R  c #9AA6AC",
"E  c #9CA9AE",
"W  c #9DAAB1",
"Q  c #A0A6AA",
"!  c #A3AEB3",
"~  c #A4B1B7",
"^  c #AAB2B5",
"/  c #A7B3B8",
"(  c #AAB5BA",
")  c #AEB8BD",
"_  c #B3BABE",
"`  c #B3BDC2",
"'  c #B7C1C5",
"]  c #BAC2C6",
"[  c #BDC6C9",
"{  c #C3CBCE",
"}  c #C6CDD1",
"|  c #C8CFD1",
" . c #CCD3D5",
".. c #D1D7D9",
"X. c #D4DADC",
"o. c #DBDEDF",
"O. c #DADFE0",
"+. c #E7EAEB",
"@. c #E9ECEE",
"#. c #EFF1F2",
"$. c None",
/* pixels */
"$.$.$.$.$.$.$.$.$.$.$.$.$.$.$.$.$.$.$.$.$.$.",
"$.$.$.$.$.$.$.$.$.$.$.$.$.$.$.$.$.$.$.$.$.$.",
"$.$.$.* 7 - # $.$.$.$.$.$.$.$.$.$.$.$.$.$.$.",
"$.> n n k z l 8 > # $.$.$.$.$.$.$.$.$.$.$.$.",
"$.8 L C { E V f u u 8 = @ o $.$.$.$.$.$.$.$.",
"$.8 ' ) H t 9 i B J u e 9 2 & @ X $.$.$.$.$.",
"$.8 ( i M ( [ ] Z 7 ^ | I j 4 2 < % o X $.$.",
"$.8 Z C W ( ` ] { { y Q @.#.o.! n 3 * @   $.",
"$.5 x P T W ~ ) ' { } g i Y o.#.Y B > % o $.",
"$.2 C F P T T W ( ` [ } [ L i t _ ] d # o $.",
"$.2 J V A K P T W / ` ' {  .X...e +.f @ . $.",
"$.2 K m N A G P U R ~ ( ` { | ..i O.g + o $.",
"$.2 N L c m A F P P T W / ` ] { l | g o o $.",
"$.2 f E v c b N A G P T E ~ ) ] M [ d X X $.",
"$.2 n e ` c k c N A G P T R ! ( Z ) & . X $.",
"$.> z j b ] A h c b N D K P T W L ! $   o $.",
"$.$.: 1 8 f W [ R I E ~ ! E I I I I $   o $.",
"$.$.$.$.$.- > q b S m f h V I ! I P +   o $.",
"$.$.$.$.$.$.$.$.- > < 5 r f h c n d + X O $.",
"$.$.$.$.$.$.$.$.$.$.$.$.* = 3 w S b % o O $.",
"$.$.$.$.$.$.$.$.$.$.$.$.$.$.$.* * = # $.$.$.",
"$.$.$.$.$.$.$.$.$.$.$.$.$.$.$.$.$.$.$.$.$.$."
};
