/* XPM */
static char *applications_multimedia[] = {
/* columns rows colors chars-per-pixel */
"48 48 256 2 ",
"   c #1E3904",
".  c #193003",
"X  c #213D05",
"o  c #343435",
"O  c #3C3C3C",
"+  c #2C4F08",
"@  c #2A4D06",
"#  c #2F5409",
"$  c #335A0A",
"%  c #335114",
"&  c #37600C",
"*  c #3C670E",
"=  c #3E6F0C",
"-  c #33433B",
";  c #3E413B",
":  c #395833",
">  c #406D0F",
",  c #467A0F",
"<  c #43740F",
"1  c #416C12",
"2  c #447213",
"3  c #497D13",
"4  c #4E7D19",
"5  c #487516",
"6  c #507E1B",
"7  c #41542C",
"8  c #414A39",
"9  c #496B26",
"0  c #45612C",
"q  c #4F7724",
"w  c #50772E",
"e  c #487635",
"r  c #313944",
"t  c #3D454E",
"y  c #3F4651",
"u  c #3F724D",
"i  c #3A6D5F",
"p  c #34596E",
"a  c #345E79",
"s  c #3B647A",
"d  c #39667A",
"f  c #414141",
"g  c #464A4F",
"h  c #41474E",
"j  c #44514C",
"k  c #404752",
"l  c #444B54",
"z  c #494F54",
"x  c #495756",
"c  c #467844",
"v  c #4B7C40",
"b  c #617D44",
"n  c #60605F",
"m  c #667B50",
"M  c #4B596A",
"N  c #475260",
"B  c #436C7D",
"V  c #5F7F79",
"C  c #646464",
"Z  c #6C6C6B",
"A  c #686867",
"S  c #706F6F",
"D  c #6D7762",
"F  c #73796D",
"G  c #706F70",
"H  c #737373",
"J  c #787877",
"K  c #7C7C7B",
"L  c #807F7F",
"P  c #4F8116",
"I  c #508217",
"U  c #53851C",
"Y  c #58881E",
"T  c #548523",
"R  c #578820",
"E  c #5A8B23",
"W  c #5D8A2A",
"Q  c #58842A",
"!  c #4F813A",
"~  c #528336",
"^  c #54853B",
"/  c #5C853B",
"(  c #5A893E",
")  c #598331",
"_  c #608F26",
"`  c #618E2D",
"'  c #64922A",
"]  c #68962B",
"[  c #618B3B",
"{  c #659233",
"}  c #6A9537",
"|  c #6F9C30",
" . c #64913C",
".. c #6B953B",
"X. c #6D9839",
"o. c #729F33",
"O. c #739E3C",
"+. c #7BA73A",
"@. c #7FAA3C",
"#. c #77A337",
"$. c #5D8C41",
"%. c #54854D",
"&. c #548350",
"*. c #618F44",
"=. c #769D49",
"-. c #6F8A54",
";. c #71865D",
":. c #7BA24A",
">. c #77A049",
",. c #7CA252",
"<. c #5B8B7F",
"1. c #588969",
"2. c #82AC3E",
"3. c #8FB84A",
"4. c #89B346",
"5. c #93BC4C",
"6. c #84A953",
"7. c #87AC57",
"8. c #8EB25C",
"9. c #95BC52",
"0. c #98BF50",
"q. c #94B85B",
"w. c #99BF59",
"e. c #91B65A",
"r. c #84AC49",
"t. c #80817E",
"y. c #8BAC65",
"u. c #91B363",
"i. c #99BB6A",
"p. c #9DBB78",
"a. c #9CC254",
"s. c #9DC25B",
"d. c #A1C55D",
"f. c #A6CB5C",
"g. c #A8CD5E",
"h. c #A0C657",
"j. c #9FC260",
"k. c #A2C564",
"l. c #ABCE63",
"z. c #A4C569",
"x. c #A7C86B",
"c. c #A9CA6C",
"v. c #A6C867",
"b. c #ADD066",
"n. c #AED069",
"m. c #B1D26E",
"M. c #A5C374",
"N. c #AECE70",
"B. c #AECB7C",
"V. c #A8C57B",
"C. c #B2CF7E",
"Z. c #B4D474",
"A. c #B5D47A",
"S. c #B9D67D",
"D. c #335682",
"F. c #345D93",
"G. c #35658A",
"H. c #3A6C8C",
"J. c #356886",
"K. c #3F708E",
"L. c #3A6296",
"P. c #35669B",
"I. c #3A6797",
"U. c #3465A4",
"Y. c #3768A6",
"T. c #3868A6",
"R. c #3C6CA9",
"E. c #3768A8",
"W. c #4C7685",
"Q. c #446C9D",
"!. c #4B6C91",
"~. c #437492",
"^. c #487996",
"/. c #4171AD",
"(. c #4870A0",
"). c #5177A3",
"_. c #567DA9",
"`. c #4575B0",
"'. c #4A7AB4",
"]. c #5A8A9A",
"[. c #6C8799",
"{. c #5687A0",
"}. c #5B8BA2",
"|. c #5C83AF",
" X c #5B88BE",
".X c #5F86B0",
"XX c #628AAC",
"oX c #7B92AA",
"OX c #668CB5",
"+X c #6492B0",
"@X c #7692B2",
"#X c #7094BA",
"$X c #7893B3",
"%X c #5D8BC1",
"&X c #618EC3",
"*X c #6492C5",
"=X c #6996C8",
"-X c #6D9ACB",
";X c #6896C7",
":X c #719FCF",
">X c #719FD0",
",X c #72A0D0",
"<X c #7CA6D3",
"1X c #838382",
"2X c #8E8E8E",
"3X c #90908F",
"4X c #949493",
"5X c #999998",
"6X c #9FAE8E",
"7X c #9CB285",
"8X c #A0A09F",
"9X c #AAB998",
"0X c #A4A4A3",
"qX c #ADADAC",
"wX c #ABB5A0",
"eX c #AFCA83",
"rX c #B2CD8B",
"tX c #BAD781",
"yX c #BDD984",
"uX c #BBD684",
"iX c #AEC790",
"pX c #BAD392",
"aX c #B2C996",
"sX c #BED3A1",
"dX c #C1DB8C",
"fX c #C5DD94",
"gX c #C5DC9C",
"hX c #CAE19D",
"jX c #C3D8A1",
"kX c #CADEAA",
"lX c #C7DCA7",
"zX c #C7D8B3",
"xX c #CDE2A3",
"cX c #D1E5AB",
"vX c #D1E4A7",
"bX c #D4E6B1",
"nX c #D7E8B2",
"mX c #D8E8B6",
"MX c #DCEBBE",
"NX c #D6E5BD",
"BX c #8AA5C1",
"VX c #C6C6C4",
"CX c #CBCBCA",
"ZX c #C6C9C1",
"AX c #DEECC2",
"SX c #D8E4C9",
"DX c #E0EDC5",
"FX c #E2EECA",
"GX c #E6F0CF",
"HX c #E4EDD8",
"JX c #E7F1D1",
"KX c #EBF3DB",
"LX c #E9F3D6",
"PX c #EFF6E1",
"IX c #F2F7E5",
"UX c None",
/* pixels */
"UXUXUXUXUXUXUXUXUXUXUXUXUXUXUXUXUXUXUXUXUXUXUXUXUXUXUXUXUXUXUXUXUXUXUXUXUXUXUXUXUXUXUXUXUXUXUXUX",
"UXUXUXUXUXUXUXUXUXUXUXUXUXUXUXUXUXUXUXUXUXUXUXUXUXUXUXUXUXUXUXUXUXUXUXUXUXUXUXUXUXUXUXUXUXUXUXUX",
"UXUXUXo O O O O o g z z z z z z z z z z z z z z z z l O O O O O o UXUXUXUXUXUXUXUXUXUXUXUXUXUXUX",
"UXUXUXO n 5X5XC z oXBXBXBXBXBXBXBXBXBXBXBXBXBXBXBXBX$Xz A 5X5XA O UXUXUXUXUXUXUXUXUXUXUXUXUXUXUX",
"UXUXUXO Z VXVXZ l #X<X<X<X<X<X<X<X<X<X<X<X<XBX<XBX>X=Xg H CXzXL O UXUXUXUXUXUXUXUXUXUXUXUXUXUXUX",
"UXUXUXO n K K C z OX,X:X:X:X:X:X,X,X:X,X:X:X,X:X>XBXOXz A W.L A f UXUXUXUXUXUXUXUXUXUXUXUXUXUXUX",
"UXUXUXO A 8X5XZ l OX,X,X:X:X:X:X:X:X:X:X:X,X:X:X>X>XOXg A 8X0XS O UXUXUXUXUXUXUXUXUXUXUXUXUXUXUX",
"UXUXUXO S VXVXH z OX,X:X:X:X:X:X:X,X:X:X:X:X:X:X>X>XOXf L VXVXL 8 UXUXUXUXUXUXUXUXUXUXUXUXUXUXUX",
"UXUXUXO C K K C l OX>X>X>X:X,X:X:X:X:X:X:X:X:X:X>X>XOXz A 1X1XZ r UXUXUXUXUXUXUXUXUXUX3 4 , UXUX",
"UXUXUXO Z 5X0XZ l OX:X:X>X>X:X:X:X:X:X:X:X:X:X:X>X>X+Xl G 0X0XG ; UXUXUXUX3 q Q } =.6.u.u.E UXUX",
"UXUXUXO H VXVXH l OX-X-X-X-X-X-X-X-X:X-X-X-X:X-X>X=XXXh D 9X7Xb 9 Q ..,.u.p.aXjXkXkXcXcXpX{ UXUX",
"UXUXUXO C t.K C l XX-X-X=X-X-X=X-X;X;X-X;X;X+X].].1.m w / ,.y.p.aXzXSXHXPXKXKXFXAXMXvXxXpX{ UXUX",
"UXUXUXO Z 0X0XZ l .X=X=X=X=X=X=X;X;X;X;X=X+X&. .>.8.p.rXlXNXFXKXPXIXIXPXKXJXFXAXbXxXfXdXA.` UXUX",
"UXUXUXO H VXVXH l |.*X*X*X=X=X*X;X*X;X;X=X}.$.V.fXxXcXnXmXMXAXAXDXDXDXMXnXvXfXyXS.Z.n.l.v.E UXUX",
"UXUXUXO C K 1XA l |.*X&X*X*X&X*X*X*X*X*X=X}.*.B.dXyXfXfXhXxXxXgXfXdXS.Z.n.b.l.f.f.g.f.b.k.W UXUX",
"UXUXUXO Z 0X0XZ l _.&X&X&X&X&X&X%X%X*X X%X}.$.c.A.A.Z.Z.Z.n.l.l.g.g.g.l.b.n.m.n.Z.c.c.Z.z.E UXUX",
"UXUXUXO H VXVXH l _.%X%X%X%X%X%X X&X X&X%X{.*.j.n.l.f.f.f.l.n.n.A.tXtXA.B.M.i.7.:.X.O.c.x.E UXUX",
"UXUXUX8 C 1X1XA l _.%X%X%X%X%X%X%X%X%X%X%X{.$.j.n.n.Z.Z.A.A.B.V.i.u.6.=.{ W T UXUXUXE z.c.E UXUX",
"UXUXUXr Z 0X0XG t !.).).).).(.).).).).).).W.( k.A.z.e.r.:.:.=./ 9 5 UXUXUXUXUXUXUXUXE z.z.E UXUX",
"UXUXUXO H VXVXH t z M M M M M M M M M M M x ) v.N.} e 0 m 6XwXF ; UXUXUXUXUXUXUXUXUXE z.z.E UXUX",
"UXUXUXf A 1X1XA z [.$X$X@X@X@X@X@X@X@X@X#X[.( k.c.*.V z G 2X2XZ f UXUXUXUXUXUXUXUXUXE z.z.E UXUX",
"UXUXUXO G 0X0XG l ).%X%X%X%X X X X X X%X X].$.v.c.*.W.l J qXqXJ f UXUXUXUXUXUXUXUXUXE z.k.R UXUX",
"UXUXUXO H VXVXJ k (.'.'.'.|.'.'.'.|.'.'.'.^.$.v.v.[ B l K CXCXK f UXUXUXUXUXUXUXUXUXE k.k.R UXUX",
"UXUXUXO A 1X1XA k (.'.'.'.'.'.'.'.'.'.'.'.~.^ j.v.$.B l G 2X2XG f UXUXUXUXUXUXUXUXUXE k.k.R UXUX",
"UXUXUXO S 0X0XH y Q.`.'.'.'.'.`.'.'.`.'.'.~./ k.v.$.B l K qXqXJ f UXUXUXUXUXUXUXUXUXE z.k.R UXUX",
"UXUXUXO J VXVXJ t Q.`./.`./.'././.`.`.`.`.~.^ k.k.$.s k K CXCXW.f UXUXUXUXUXUXUXUXUXE j.j.U UXUX",
"UXUXUXf A 1X1XZ k Q././././././././././.`.~.^ d.k.( s l L 3X5XL f UXUXUXUXUXUXUXUXUXE j.s.U UXUX",
"UXUXUXO S 0X0XH k I./././././././././././.H.^ d.k.( s l L qX0XL f UXUXUXUXUXUXUXUXUXE j.s.U UXUX",
"UXUXUXO H VXVXK y L.R.R.R.R.R.R.R./.R.R.R.K.^ s.j.$.D.k L zXCXL f UXUXUXUXUXUXUXUXUXE s.s.U UXUX",
"UXUXUXf A 1X1XZ h L.R.R.R.R.R.R.R.T.R.R.R.H.^ d.j./ J.N A 3X1XL f UXUXUXUXUXUXUXUXUXE s.w.U UXUX",
"UXUXUXO S 0X0XH t F.T.Y.T.T.T.T.Y.Y.Y.Y.T.G.~ s.s.w M r L qXqXL f UXUXUXUXUXUXUXUXUXE s.9.U UXUX",
"UXUXUXO H VXVXJ t F.Y.P.U.U.U.U.U.U.U.U.Y.G.~ w.w.$.a f L CXVXL f UXUXUXUXUXUXUXUXUXR a.9.I UXUX",
"UXUXUXO Z 1X1XZ t F.U.U.U.U.U.U.U.U.U.U.U.J.~ a.a.! a y H 3X3XH f UXUXUXUXUXUXUXUXUXY a.9.I UXUX",
"UXUXUXO Z 0X0XH t F.U.U.U.U.U.U.U.U.U.U.U.G.~ 5.a.! a y K qXqXJ 8 UX3 I Q ` { { ` T E s.5.I UXUX",
"UXUXUXO H VXCXH t F.U.U.U.U.U.U.U.P.P.I.P.J.~ a.9.^ a y L CXVX;.q } 8.V.pXjXgXgXpXB.z.l.3.I UXUX",
"UXUXUXO C H K n t D.F.F.F.G.d i u c e v c c T 5.5.e p y A t.-. .i.kXFXLXJXAXnXvXhXfXuXl.3.I UXUX",
"UXUXUXo O O O O o r o t : e ( :.i.V.eXeXM.e.r.h.5.q - o O : _ z.bXLXKXJXDXcXhXdXS.Z.l.f.@.3 UXUX",
"UXUXUXUXUXUXUXUXUXUX% 2 } M.lXAXDXAXnXcXhXfXS.g.5.U UXUXUX> 8.cXxXnXmXcXhXdXS.m.b.l.f.5.E UXUXUX",
"UXUXUXUXUXUXUXUXUXUXU 4.lXJXLXFXAXnXxXfXyXS.n.g.4.P UXUXUX, q.vXS.Z.Z.Z.m.l.g.f.f.a.2.Y = UXUXUX",
"UXUXUXUXUXUXUXUXUXR q.S.vXAXFXAXbXhXyXZ.l.g.f.h.| , UXUXUX* _ 9.h.f.f.g.f.f.h.5.2.' 2 UXUXUXUXUX",
"UXUXUXUXUXUXUXUXUXO.xXfXS.fXfXfXyXZ.l.g.f.f.a.| 3 UXUXUXUXUX& 4 ' o.+.+.#.o._ 4 * + UXUXUXUXUXUX",
"UXUXUXUXUXUXUXUXUX{ A.Z.l.n.m.l.l.g.f.f.0.@.E < UXUXUXUXUXUXUXUX+ $ & & $ + X UXUXUXUXUXUXUXUXUX",
"UXUXUXUXUXUXUXUXUX2 ' 2.5.a.a.a.0.5.2.| U > UXUXUXUXUXUXUXUXUXUXUXUXUXUXUXUXUXUXUXUXUXUXUXUXUXUX",
"UXUXUXUXUXUXUXUXUXUX$ < U E _ E R 5 * # X UXUXUXUXUXUXUXUXUXUXUXUXUXUXUXUXUXUXUXUXUXUXUXUXUXUXUX",
"UXUXUXUXUXUXUXUXUXUXUXUXUXX X   . UXUXUXUXUXUXUXUXUXUXUXUXUXUXUXUXUXUXUXUXUXUXUXUXUXUXUXUXUXUXUX",
"UXUXUXUXUXUXUXUXUXUXUXUXUXUXUXUXUXUXUXUXUXUXUXUXUXUXUXUXUXUXUXUXUXUXUXUXUXUXUXUXUXUXUXUXUXUXUXUX",
"UXUXUXUXUXUXUXUXUXUXUXUXUXUXUXUXUXUXUXUXUXUXUXUXUXUXUXUXUXUXUXUXUXUXUXUXUXUXUXUXUXUXUXUXUXUXUXUX",
"UXUXUXUXUXUXUXUXUXUXUXUXUXUXUXUXUXUXUXUXUXUXUXUXUXUXUXUXUXUXUXUXUXUXUXUXUXUXUXUXUXUXUXUXUXUXUXUX"
};
